HIERARCHY
ROOT Hips
{
	OFFSET	0.00	0.00	0.00
	CHANNELS 6 Xposition Yposition Zposition Zrotation Xrotation Yrotation
	JOINT LeftUpLeg
	{
		OFFSET	 0.126116	-0.065224	 0.014019
		CHANNELS 3 Zrotation Xrotation Yrotation
		JOINT LeftLeg
		{
			OFFSET	 0.000000	 0.569914	 0.000000
			CHANNELS 3 Zrotation Xrotation Yrotation
			JOINT LeftFoot
			{
				OFFSET	 0.000000	 0.544423	 0.000000
				CHANNELS 3 Zrotation Xrotation Yrotation
				JOINT LeftToeBase
				{
					OFFSET	 0.000000	 0.207117	 0.000000
					CHANNELS 3 Zrotation Xrotation Yrotation
					End Site
					{
						OFFSET	 0.000000	 0.207117	 0.000000
					}
				}
			}
		}
	}
	JOINT RightUpLeg
	{
		OFFSET	-0.124023	-0.065224	 0.008373
		CHANNELS 3 Zrotation Xrotation Yrotation
		JOINT RightLeg
		{
			OFFSET	 0.000000	 0.570047	 0.000000
			CHANNELS 3 Zrotation Xrotation Yrotation
			JOINT RightFoot
			{
				OFFSET	 0.000000	 0.544354	 0.000000
				CHANNELS 3 Zrotation Xrotation Yrotation
				JOINT RightToeBase
				{
					OFFSET	 0.000000	 0.207540	 0.000000
					CHANNELS 3 Zrotation Xrotation Yrotation
					End Site
					{
						OFFSET	 0.000000	 0.207540	 0.000000
					}
				}
			}
		}
	}
	JOINT Spine
	{
		OFFSET	 0.000184	 0.117403	 0.007763
		CHANNELS 3 Zrotation Xrotation Yrotation
		JOINT Spine1
		{
			OFFSET	 0.000000	 0.137269	 0.000000
			CHANNELS 3 Zrotation Xrotation Yrotation
			JOINT Spine2
			{
				OFFSET	 0.000000	 0.156879	 0.000000
				CHANNELS 3 Zrotation Xrotation Yrotation
				JOINT LeftShoulder
				{
					OFFSET	 0.080501	 0.160143	 0.002496
					CHANNELS 3 Zrotation Xrotation Yrotation
					JOINT LeftArm
					{
						OFFSET	 0.000000	 0.164363	 0.000000
						CHANNELS 3 Zrotation Xrotation Yrotation
						JOINT LeftForeArm
						{
							OFFSET	 0.000000	 0.364576	 0.000000
							CHANNELS 3 Zrotation Xrotation Yrotation
							JOINT LeftHand
							{
								OFFSET	 0.000000	 0.360812	 0.000000
								CHANNELS 3 Zrotation Xrotation Yrotation
								JOINT LeftHandIndex1
								{
									OFFSET	 0.000000	 0.086006	 0.000000
									CHANNELS 3 Zrotation Xrotation Yrotation
									JOINT LeftHandIndex2
									{
										OFFSET	 0.000000	 0.047237	 0.000000
										CHANNELS 3 Zrotation Xrotation Yrotation
										JOINT LeftHandIndex3
										{
											OFFSET	-0.004284	 0.038165	 0.000551
											CHANNELS 3 Zrotation Xrotation Yrotation
											End Site
											{
												OFFSET	-0.004284	 0.038165	 0.000551
											}
										}
									}
								}
							}
						}
					}
				}
				JOINT Neck
				{
					OFFSET	 0.000000	 0.176489	 0.000000
					CHANNELS 3 Zrotation Xrotation Yrotation
					JOINT Head
					{
						OFFSET	 0.000000	 0.077941	 0.001747
						CHANNELS 3 Zrotation Xrotation Yrotation
						End Site
						{
							OFFSET	 0.000000	 0.077941	 0.001747
						}
					}
				}
				JOINT RightShoulder
				{
					OFFSET	-0.080363	 0.159706	-0.000306
					CHANNELS 3 Zrotation Xrotation Yrotation
					JOINT RightArm
					{
						OFFSET	 0.000000	 0.164196	 0.000000
						CHANNELS 3 Zrotation Xrotation Yrotation
						JOINT RightForeArm
						{
							OFFSET	 0.000000	 0.365611	 0.000000
							CHANNELS 3 Zrotation Xrotation Yrotation
							JOINT RightHand
							{
								OFFSET	 0.000000	 0.360648	 0.000000
								CHANNELS 3 Zrotation Xrotation Yrotation
								JOINT RightHandIndex1
								{
									OFFSET	 0.000000	 0.069977	 0.000000
									CHANNELS 3 Zrotation Xrotation Yrotation
									JOINT RightHandIndex2
									{
										OFFSET	 0.000000	 0.052305	 0.000000
										CHANNELS 3 Zrotation Xrotation Yrotation
										JOINT RightHandIndex3
										{
											OFFSET	 0.009002	 0.042196	 0.000782
											CHANNELS 3 Zrotation Xrotation Yrotation
											End Site
											{
												OFFSET	 0.009002	 0.042196	 0.000782
											}
										}
									}
								}
							}
						}
					}
				}
			}
		}
	}
}
MOTION
Frames:    11
Frame Time: 0.03333334
 0.000134	 1.284126	-0.012504	 0.312515	 1.999046	 177.702900	 179.935100	 4.669691	-5.188241	 3.451401	-16.958370	 2.839256	-4.740554	 68.553630	 6.743178	 1.331492	 28.938720	-2.729976	-179.132200	 5.443002	 6.231112	-5.242374	-16.774560	-7.536737	-1.352237	 68.212380	 1.380460	-1.309089	 28.626060	 2.402571	-1.143969	 4.062855	 8.203506	-0.801669	-0.211764	 3.663302	-0.194010	 2.193687	-13.071000	-113.435200	 5.422887	 92.956670	 0.716577	 47.441090	 41.395900	 27.855630	-1.385055	 0.259647	-3.077469	-32.631760	 16.278070	-6.580301	 5.266122	 0.000000	 0.000000	 0.000000	 0.000000	 0.000000	 0.000000	 0.000000	 5.006484	-0.497681	 0.268609	 1.584344	 1.981710	-0.372419	 114.286500	-4.879107	-88.062580	-70.026810	-7.186018	 54.930740	-76.378940	-2.189752	-1.664022	-31.067390	-25.367630	-53.320020	-0.367342	 10.800260	 0.745944	 11.980660	 9.530480	-2.141904	-8.361438	 3.268129	 0.096695
 0.006851	 1.284499	-0.008077	 0.244720	 2.204945	 178.502400	-179.889300	 4.726951	-4.402909	 3.445492	-16.931050	 3.268958	-4.036829	 68.229240	 5.652601	 1.331492	 28.938720	-2.729976	-178.989900	 5.427660	 6.960031	-5.232166	-16.743810	-7.527710	-1.544584	 68.093250	 1.412291	-1.301946	 28.533770	 2.572541	-1.101078	 4.439027	 8.561719	-0.636163	-0.431244	 3.928113	-0.439620	 3.219766	-13.343550	-113.437500	 5.481050	 93.012510	 0.435698	 48.702770	 40.116380	 27.922140	-1.388086	 0.261228	-1.989890	-28.053490	 16.903600	-6.580301	 5.266122	 0.000000	 0.000000	 0.000000	 0.000000	 0.000000	 0.000000	 0.000000	 5.200495	-0.392365	-0.042639	 3.383423	 1.534084	-1.143209	 114.275900	-4.803378	-88.101100	-70.302450	 6.318813	 31.605520	-102.809900	-2.197069	-2.693937	-4.519905	-20.501630	-48.374890	-0.470184	 13.720940	 0.767806	 12.036480	 12.388310	-2.761032	-8.390799	 4.844421	-0.003911
 0.014049	 1.284718	-0.003240	 0.106116	 2.426819	 179.429100	-179.806600	 4.928874	-3.473539	 3.449908	-16.951510	 3.837486	-3.023844	 67.821240	 4.226483	 1.331492	 28.938720	-2.729976	-178.902700	 5.549511	 7.856550	-5.291917	-16.923650	-7.485655	-1.609698	 68.049000	 1.310499	-1.294395	 28.440550	 2.750965	-1.020719	 4.819226	 9.012640	-0.720752	-0.446504	 4.349112	-0.623621	 4.089725	-13.483260	-113.440000	 5.504248	 93.055640	 1.757428	 50.245250	 37.676860	 28.651990	-1.421294	 0.279177	-2.564935	-22.331430	 17.317100	-6.580301	 5.266122	 0.000000	 0.000000	 0.000000	 0.000000	 0.000000	 0.000000	 0.000000	 5.325968	-0.282953	-0.372387	 5.118817	 1.032594	-1.914505	 114.262400	-4.707780	-88.152390	-70.199160	 23.342810	-1.446519	-105.505800	-2.171132	-2.796723	 2.065607	-28.447000	-47.443430	-0.593570	 17.130540	 0.800653	 12.143110	 15.723620	-3.497380	-8.421190	 6.655136	-0.118820
 0.017280	 1.284737	 0.000073	-0.151939	 2.516551	-179.778300	 179.971900	 5.256691	-2.578640	 3.432592	-16.871320	 4.624026	-1.267020	 67.482530	 2.189446	 1.331492	 28.938720	-2.729976	-179.051700	 5.879177	 8.874953	-5.460845	-17.430110	-7.269430	-1.149238	 68.237480	 0.675961	-1.292770	 28.422630	 2.820972	-1.049890	 4.851315	 9.098724	-0.688386	 0.280309	 4.455359	-0.900454	 3.716558	-13.506550	-113.440900	 5.322819	 92.994600	 3.937440	 50.694430	 36.354570	 29.769010	-1.471734	 0.307319	-3.056949	-18.995310	 16.825040	-6.580301	 5.266122	 0.000000	 0.000000	 0.000000	 0.000000	 0.000000	 0.000000	 0.000000	 4.978391	-0.240183	-0.513686	 5.073055	 0.735006	-2.270774	 114.245200	-4.589849	-88.226830	-49.151360	 36.036090	-18.886790	-99.412290	-2.222770	-2.562910	 8.783127	-39.200070	-30.779570	-0.708062	 20.187250	 0.837290	 12.278790	 18.712420	-4.174425	-8.443535	 8.143711	-0.212907
 0.019442	 1.284731	 0.003150	-0.399660	 2.599455	-179.006500	 179.710700	 5.574339	-1.708067	 3.417594	-16.801910	 5.396844	 0.459948	 67.135090	 0.228169	 1.331492	 28.938720	-2.729976	-179.242900	 6.218984	 9.864961	-5.648985	-17.990690	-7.069879	-0.626119	 68.465130	 0.038586	-1.291163	 28.405180	 2.889160	-1.031083	 4.879838	 8.864867	-0.688569	 0.895547	 4.289277	-1.159569	 3.359723	-13.387570	-113.442000	 5.146082	 92.935130	 6.289216	 50.942860	 34.842620	 30.499480	-1.504376	 0.326297	-3.543821	-15.612460	 15.540900	-6.580301	 5.266122	 0.000000	 0.000000	 0.000000	 0.000000	 0.000000	 0.000000	 0.000000	 4.639906	-0.197696	-0.651079	 5.025634	 0.452691	-2.583296	 114.228500	-4.474926	-88.299320	-31.269640	 40.770890	-29.763070	-82.539570	-2.233999	-1.902066	 10.187970	-33.597820	-2.963363	-0.824003	 23.165040	 0.880123	 12.450000	 21.622440	-4.853910	-8.463005	 9.593844	-0.304364
 0.020841	 1.284737	 0.005606	-0.438629	 2.794797	-179.398000	 179.781000	 5.550183	-2.084754	 3.438593	-16.899170	 5.300703	 0.119237	 66.993660	 0.530475	 1.331492	 28.938720	-2.729976	-179.144200	 6.413204	 9.492073	-5.782933	-18.387580	-7.700978	-2.283618	 68.535060	 1.707768	-1.291514	 28.411260	 2.918782	-1.009996	 4.918281	 8.560084	-0.696190	 1.267517	 4.118460	-1.238467	 3.131518	-13.036760	-113.443500	 5.079405	 92.928280	 7.078421	 50.790660	 34.902700	 30.344160	-1.497486	 0.322230	-4.500009	-12.974440	 14.708860	-6.580301	 5.266122	 0.000000	 0.000000	 0.000000	 0.000000	 0.000000	 0.000000	 0.000000	 4.354379	-0.163262	-0.723436	 4.893456	 0.461852	-2.625097	 114.217700	-4.400445	-88.347660	-25.194320	 42.551030	-33.509240	-69.812320	-2.114793	-1.417194	 12.205870	-27.125770	 13.045920	-0.814141	 22.916600	 0.876263	 12.434170	 21.379730	-4.796347	-8.461660	 9.487870	-0.297690
 0.021641	 1.284690	 0.007898	-0.374113	 3.051800	 179.643000	-179.995500	 5.370090	-3.067165	 3.488654	-17.130570	 4.794772	-1.178161	 66.983340	 1.886818	 1.331492	 28.938720	-2.729976	-178.904900	 6.581448	 8.455984	-5.921513	-18.796130	-8.743420	-4.981490	 68.529240	 4.495497	-1.292816	 28.428730	 2.931583	-0.984850	 4.962820	 8.013191	-0.737033	 1.483394	 3.770135	-1.219866	 2.979986	-12.492810	-113.445200	 5.061582	 92.945900	 6.875719	 50.276140	 35.915780	 29.726190	-1.469803	 0.306260	-5.636755	-10.605220	 13.595760	-6.580301	 5.266122	 0.000000	 0.000000	 0.000000	 0.000000	 0.000000	 0.000000	 0.000000	 4.080750	-0.131122	-0.768394	 4.716741	 0.612743	-2.523995	 114.209100	-4.341648	-88.386880	-19.820300	 40.992410	-37.568400	-64.255410	-2.029612	-1.216074	 17.234490	-20.981660	 23.446170	-0.744495	 21.136220	 0.850142	 12.329040	 19.640010	-4.388595	-8.450509	 8.643510	-0.244457
 0.022028	 1.284848	 0.009945	-0.293325	 3.300189	 178.705900	-179.781800	 5.129205	-4.026963	 3.522344	-17.286010	 4.299723	-2.394432	 66.952240	 3.188016	 1.331492	 28.938720	-2.729976	-178.684500	 6.647484	 7.444271	-6.013682	-19.066720	-9.729411	-7.529784	 68.439410	 7.138058	-1.294091	 28.445770	 2.944080	-0.952774	 5.000461	 7.338561	-0.679109	 1.617580	 3.345419	-1.248244	 2.856418	-11.798070	-113.446900	 5.044151	 92.963070	 6.337407	 49.818590	 37.196730	 29.212150	-1.446755	 0.293218	-6.727610	-8.457292	 12.104080	-6.580301	 5.266122	 0.000000	 0.000000	 0.000000	 0.000000	 0.000000	 0.000000	 0.000000	 3.813712	-0.099547	-0.812125	 4.545087	 0.768019	-2.384503	 114.200800	-4.284259	-88.425120	-15.284640	 39.070210	-41.827540	-59.571850	-1.943015	-1.053671	 21.707180	-13.885720	 30.345820	-0.678121	 19.398650	 0.827149	 12.240030	 17.941510	-3.997932	-8.438883	 7.819436	-0.192452
 0.022209	 1.285320	 0.010876	-0.269387	 3.423713	 178.286200	-179.705600	 4.970924	-4.435349	 3.517553	-17.263960	 4.039965	-2.983542	 66.829350	 3.838761	 1.331492	 28.938720	-2.729976	-178.605100	 6.607502	 6.996473	-6.026537	-19.104380	-9.989017	-8.210072	 68.305090	 7.809884	-1.295830	 28.467960	 2.938343	-0.931816	 4.966706	 6.690127	-0.655139	 1.867193	 3.006764	-1.258819	 2.529989	-10.874520	-113.447700	 5.016216	 92.962690	 5.945555	 49.753370	 37.991500	 29.243590	-1.448007	 0.293918	-8.045641	-6.640853	 10.175770	-6.580301	 5.266122	 0.000000	 0.000000	 0.000000	 0.000000	 0.000000	 0.000000	 0.000000	 3.662904	-0.139465	-0.821423	 4.389691	 0.831074	-2.133304	 114.196200	-4.253434	-88.447610	-13.645400	 39.321370	-43.852110	-54.808630	-1.841635	-0.896269	 21.516820	-9.693892	 32.213240	-0.630343	 18.124340	 0.811782	 12.182960	 16.695520	-3.715482	-8.429263	 7.173784	-0.151654
 0.022312	 1.285892	 0.011168	-0.296231	 3.452634	 178.267200	-179.732500	 4.911992	-4.416309	 3.499408	-17.180240	 3.963946	-3.121447	 66.679310	 4.004444	 1.331492	 28.938720	-2.729976	-178.632800	 6.573602	 6.983127	-6.020806	-19.087570	-9.703851	-7.472862	 68.197140	 6.998375	-1.297948	 28.494540	 2.918206	-0.920732	 4.869951	 5.884042	-0.735613	 2.217448	 2.581560	-1.216373	 2.016850	-9.709198	-113.447900	 4.979548	 92.948490	 5.519714	 49.860860	 38.514080	 29.473420	-1.458367	 0.299763	-9.244219	-5.137938	 7.511641	-6.580301	 5.266122	 0.000000	 0.000000	 0.000000	 0.000000	 0.000000	 0.000000	 0.000000	 3.600900	-0.236240	-0.804017	 4.243485	 0.821095	-1.778315	 114.194500	-4.242999	-88.458100	-12.407710	 39.886170	-44.664040	-53.159690	-1.803489	-0.843826	 19.205690	-7.154902	 31.350090	-0.595844	 17.192510	 0.801315	 12.145490	 15.784240	-3.510899	-8.421251	 6.657764	-0.119003
 0.022391	 1.286527	 0.011438	-0.318092	 3.479531	 178.248600	-179.756400	 4.845222	-4.398687	 3.476825	-17.075970	 3.889522	-3.243521	 66.518650	 4.158363	 1.331492	 28.938720	-2.729976	-178.661000	 6.511919	 6.971084	-5.999384	-19.024800	-9.422106	-6.762022	 68.068750	 6.211946	-1.299967	 28.520000	 2.898919	-0.906119	 4.765758	 4.986867	-0.783736	 2.573233	 2.121842	-1.190068	 1.483128	-8.379685	-113.448100	 4.944433	 92.934900	 5.051257	 49.993020	 39.075860	 29.785770	-1.472348	 0.307726	-10.383780	-3.852454	 4.514936	-6.580301	 5.266122	 0.000000	 0.000000	 0.000000	 0.000000	 0.000000	 0.000000	 0.000000	 3.541551	-0.328929	-0.787448	 4.102528	 0.813236	-1.384597	 114.192700	-4.232983	-88.468160	-10.984890	 40.571150	-45.727540	-51.473960	-1.763031	-0.791353	 16.880550	-5.000854	 30.068370	-0.563121	 16.299890	 0.791885	 12.112910	 14.911200	-3.316340	-8.413309	 6.163580	-0.087697
